<svg xmlns="http://www.w3.org/2000/svg" xmlns:xlink="http://www.w3.org/1999/xlink" version="1.1" class="marks" width="907" height="936" viewBox="0 0 907 936"><rect width="907" height="936" fill="#1a1d24"/><g fill="none" stroke-miterlimit="10" transform="translate(64,78)"><g class="mark-group role-frame root" role="graphics-object" aria-roledescription="group mark container"><g transform="translate(0,0)"><path class="background" aria-hidden="true" d="M0,0h600v800h-600Z"/><g><g class="mark-group role-axis" aria-hidden="true"><g transform="translate(0.5,0.5)"><path class="background" aria-hidden="true" d="M0,0h0v0h0Z" pointer-events="none"/><g><g class="mark-rule role-axis-grid" pointer-events="none"><line transform="translate(0,800)" x2="600" y2="0" stroke="#2e333d" stroke-width="1" opacity="1"/><line transform="translate(0,775)" x2="600" y2="0" stroke="#2e333d" stroke-width="1" opacity="1"/><line transform="translate(0,752)" x2="600" y2="0" stroke="#2e333d" stroke-width="1" opacity="1"/><line transform="translate(0,712)" x2="600" y2="0" stroke="#2e333d" stroke-width="1" opacity="1"/><line transform="translate(0,618)" x2="600" y2="0" stroke="#2e333d" stroke-width="1" opacity="1"/><line transform="translate(0,511)" x2="600" y2="0" stroke="#2e333d" stroke-width="1" opacity="1"/><line transform="translate(0,377)" x2="600" y2="0" stroke="#2e333d" stroke-width="1" opacity="1"/><line transform="translate(0,170)" x2="600" y2="0" stroke="#2e333d" stroke-width="1" opacity="1"/><line transform="translate(0,0)" x2="600" y2="0" stroke="#2e333d" stroke-width="1" opacity="1"/></g></g><path class="foreground" aria-hidden="true" d="" pointer-events="none" display="none"/></g></g><g class="mark-group role-axis" role="graphics-symbol" aria-roledescription="axis" aria-label="X-axis titled 'What the Monitor Can See (Pooled Rate)' for a discrete scale with 3 values: Output only, Output + CoT, Self-report"><g transform="translate(0.5,800.5)"><path class="background" aria-hidden="true" d="M0,0h0v0h0Z" pointer-events="none"/><g><g class="mark-rule role-axis-tick" pointer-events="none"><line transform="translate(100,0)" x2="0" y2="5" stroke="#8b919d" stroke-width="1" opacity="1"/><line transform="translate(300,0)" x2="0" y2="5" stroke="#8b919d" stroke-width="1" opacity="1"/><line transform="translate(500,0)" x2="0" y2="5" stroke="#8b919d" stroke-width="1" opacity="1"/></g><g class="mark-text role-axis-label" pointer-events="none"><text text-anchor="middle" transform="translate(100,27)" font-family="system-ui, -apple-system, Segoe UI, Helvetica, Arial, sans-serif" font-size="17.3px" fill="#ccd0d8" opacity="1">Output only (0.3%)</text><text text-anchor="middle" transform="translate(300,27)" font-family="system-ui, -apple-system, Segoe UI, Helvetica, Arial, sans-serif" font-size="17.3px" fill="#ccd0d8" opacity="1">Output + CoT (1.8%)</text><text text-anchor="middle" transform="translate(500,27)" font-family="system-ui, -apple-system, Segoe UI, Helvetica, Arial, sans-serif" font-size="17.3px" fill="#ccd0d8" opacity="1">Self-report (55.3%)</text></g><g class="mark-rule role-axis-domain" pointer-events="none"><line transform="translate(0,0)" x2="600" y2="0" stroke="#8b919d" stroke-width="1" opacity="1"/></g><g class="mark-text role-axis-title" pointer-events="none"><text text-anchor="middle" transform="translate(300,49.3)" font-family="system-ui, -apple-system, Segoe UI, Helvetica, Arial, sans-serif" font-size="18.7px" font-weight="bold" fill="#ccd0d8" opacity="1">What the Monitor Can See (Pooled Rate)</text></g></g><path class="foreground" aria-hidden="true" d="" pointer-events="none" display="none"/></g></g><g class="mark-group role-axis" role="graphics-symbol" aria-roledescription="axis" aria-label="Y-axis titled 'Eval Awareness (% of Graded Samples)' for a symlog scale with values from 0 to 100"><g transform="translate(0.5,0.5)"><path class="background" aria-hidden="true" d="M0,0h0v0h0Z" pointer-events="none"/><g><g class="mark-rule role-axis-tick" pointer-events="none"><line transform="translate(0,800)" x2="-5" y2="0" stroke="#8b919d" stroke-width="1" opacity="1"/><line transform="translate(0,775)" x2="-5" y2="0" stroke="#8b919d" stroke-width="1" opacity="1"/><line transform="translate(0,752)" x2="-5" y2="0" stroke="#8b919d" stroke-width="1" opacity="1"/><line transform="translate(0,712)" x2="-5" y2="0" stroke="#8b919d" stroke-width="1" opacity="1"/><line transform="translate(0,618)" x2="-5" y2="0" stroke="#8b919d" stroke-width="1" opacity="1"/><line transform="translate(0,511)" x2="-5" y2="0" stroke="#8b919d" stroke-width="1" opacity="1"/><line transform="translate(0,377)" x2="-5" y2="0" stroke="#8b919d" stroke-width="1" opacity="1"/><line transform="translate(0,170)" x2="-5" y2="0" stroke="#8b919d" stroke-width="1" opacity="1"/><line transform="translate(0,0)" x2="-5" y2="0" stroke="#8b919d" stroke-width="1" opacity="1"/></g><g class="mark-text role-axis-label" pointer-events="none"><text text-anchor="end" transform="translate(-7,805)" font-family="system-ui, -apple-system, Segoe UI, Helvetica, Arial, sans-serif" font-size="17.3px" fill="#ccd0d8" opacity="1">0</text><text text-anchor="end" transform="translate(-7,779.955630840916)" font-family="system-ui, -apple-system, Segoe UI, Helvetica, Arial, sans-serif" font-size="17.3px" fill="#ccd0d8" opacity="1">0.5</text><text text-anchor="end" transform="translate(-7,757.0919131263719)" font-family="system-ui, -apple-system, Segoe UI, Helvetica, Arial, sans-serif" font-size="17.3px" fill="#ccd0d8" opacity="1">1</text><text text-anchor="end" transform="translate(-7,716.5862028271825)" font-family="system-ui, -apple-system, Segoe UI, Helvetica, Arial, sans-serif" font-size="17.3px" fill="#ccd0d8" opacity="1">2</text><text text-anchor="end" transform="translate(-7,622.8638010424377)" font-family="system-ui, -apple-system, Segoe UI, Helvetica, Arial, sans-serif" font-size="17.3px" fill="#ccd0d8" opacity="1">5</text><text text-anchor="end" transform="translate(-7,516.3209546283758)" font-family="system-ui, -apple-system, Segoe UI, Helvetica, Arial, sans-serif" font-size="17.3px" fill="#ccd0d8" opacity="1">10</text><text text-anchor="end" transform="translate(-7,382.0928425444415)" font-family="system-ui, -apple-system, Segoe UI, Helvetica, Arial, sans-serif" font-size="17.3px" fill="#ccd0d8" opacity="1">20</text><text text-anchor="end" transform="translate(-7,174.91227442779504)" font-family="system-ui, -apple-system, Segoe UI, Helvetica, Arial, sans-serif" font-size="17.3px" fill="#ccd0d8" opacity="1">50</text><text text-anchor="end" transform="translate(-7,5)" font-family="system-ui, -apple-system, Segoe UI, Helvetica, Arial, sans-serif" font-size="17.3px" fill="#ccd0d8" opacity="1">100</text></g><g class="mark-rule role-axis-domain" pointer-events="none"><line transform="translate(0,800)" x2="0" y2="-800" stroke="#8b919d" stroke-width="1" opacity="1"/></g><g class="mark-text role-axis-title" pointer-events="none"><text text-anchor="middle" transform="translate(-39.86430358886719,400) rotate(-90) translate(0,-4)" font-family="system-ui, -apple-system, Segoe UI, Helvetica, Arial, sans-serif" font-size="18.7px" font-weight="bold" fill="#ccd0d8" opacity="1">Eval Awareness (% of Graded Samples)</text></g></g><path class="foreground" aria-hidden="true" d="" pointer-events="none" display="none"/></g></g><g class="mark-group role-scope layer_0_pathgroup" role="graphics-object" aria-roledescription="group mark container"><g transform="translate(0,0)"><path class="background" aria-hidden="true" d="M0,0h600v800h-600Z"/><g><g class="mark-line role-mark layer_0_marks" role="graphics-object" aria-roledescription="line mark container"><path aria-label="What the Monitor Can See (Pooled Rate): Output only; Eval Awareness (% of Graded Samples): 0.4; lab: Anthropic; model: Claude Sonnet 4.5" role="graphics-symbol" aria-roledescription="line mark" d="M100,780.684L300,649.905L500,21.866" stroke="#d97757" stroke-width="2" opacity="0.9"/></g></g><path class="foreground" aria-hidden="true" d="" display="none"/></g><g transform="translate(0,0)"><path class="background" aria-hidden="true" d="M0,0h600v800h-600Z"/><g><g class="mark-line role-mark layer_0_marks" role="graphics-object" aria-roledescription="line mark container"><path aria-label="What the Monitor Can See (Pooled Rate): Output only; Eval Awareness (% of Graded Samples): 3; lab: Anthropic; model: Claude Haiku 4.5" role="graphics-symbol" aria-roledescription="line mark" d="M100,677.945L300,613.455L500,61.633" stroke="#d97757" stroke-width="2" opacity="0.9"/></g></g><path class="foreground" aria-hidden="true" d="" display="none"/></g><g transform="translate(0,0)"><path class="background" aria-hidden="true" d="M0,0h600v800h-600Z"/><g><g class="mark-line role-mark layer_0_marks" role="graphics-object" aria-roledescription="line mark container"><path aria-label="What the Monitor Can See (Pooled Rate): Output only; Eval Awareness (% of Graded Samples): 0; lab: OpenAI; model: GPT-5" role="graphics-symbol" aria-roledescription="line mark" d="M100,800L300,795.318L500,253.02" stroke="#c8ccd4" stroke-width="2" opacity="0.9"/></g></g><path class="foreground" aria-hidden="true" d="" display="none"/></g><g transform="translate(0,0)"><path class="background" aria-hidden="true" d="M0,0h600v800h-600Z"/><g><g class="mark-line role-mark layer_0_marks" role="graphics-object" aria-roledescription="line mark container"><path aria-label="What the Monitor Can See (Pooled Rate): Output only; Eval Awareness (% of Graded Samples): 0; lab: OpenAI; model: GPT-5.1" role="graphics-symbol" aria-roledescription="line mark" d="M100,800L300,797.173L500,260.909" stroke="#c8ccd4" stroke-width="2" opacity="0.9"/></g></g><path class="foreground" aria-hidden="true" d="" display="none"/></g><g transform="translate(0,0)"><path class="background" aria-hidden="true" d="M0,0h600v800h-600Z"/><g><g class="mark-line role-mark layer_0_marks" role="graphics-object" aria-roledescription="line mark container"><path aria-label="What the Monitor Can See (Pooled Rate): Output only; Eval Awareness (% of Graded Samples): 0; lab: OpenAI; model: GPT-5.2" role="graphics-symbol" aria-roledescription="line mark" d="M100,800L300,800L500,113.874" stroke="#c8ccd4" stroke-width="2" opacity="0.9"/></g></g><path class="foreground" aria-hidden="true" d="" display="none"/></g><g transform="translate(0,0)"><path class="background" aria-hidden="true" d="M0,0h600v800h-600Z"/><g><g class="mark-line role-mark layer_0_marks" role="graphics-object" aria-roledescription="line mark container"><path aria-label="What the Monitor Can See (Pooled Rate): Output only; Eval Awareness (% of Graded Samples): 0; lab: OpenAI; model: GPT-5.4" role="graphics-symbol" aria-roledescription="line mark" d="M100,800L300,800L500,401.127" stroke="#c8ccd4" stroke-width="2" opacity="0.9"/></g></g><path class="foreground" aria-hidden="true" d="" display="none"/></g><g transform="translate(0,0)"><path class="background" aria-hidden="true" d="M0,0h600v800h-600Z"/><g><g class="mark-line role-mark layer_0_marks" role="graphics-object" aria-roledescription="line mark container"><path aria-label="What the Monitor Can See (Pooled Rate): Output only; Eval Awareness (% of Graded Samples): 0; lab: OpenAI; model: GPT-5.6" role="graphics-symbol" aria-roledescription="line mark" d="M100,800L300,800L500,459.843" stroke="#c8ccd4" stroke-width="2" opacity="0.9"/></g></g><path class="foreground" aria-hidden="true" d="" display="none"/></g><g transform="translate(0,0)"><path class="background" aria-hidden="true" d="M0,0h600v800h-600Z"/><g><g class="mark-line role-mark layer_0_marks" role="graphics-object" aria-roledescription="line mark container"><path aria-label="What the Monitor Can See (Pooled Rate): Output only; Eval Awareness (% of Graded Samples): 0; lab: Google; model: Gemini 3.5 Flash" role="graphics-symbol" aria-roledescription="line mark" d="M100,800L300,775.722L500,165.998" stroke="#34a853" stroke-width="2" opacity="0.9"/></g></g><path class="foreground" aria-hidden="true" d="" display="none"/></g><g transform="translate(0,0)"><path class="background" aria-hidden="true" d="M0,0h600v800h-600Z"/><g><g class="mark-line role-mark layer_0_marks" role="graphics-object" aria-roledescription="line mark container"><path aria-label="What the Monitor Can See (Pooled Rate): Output only; Eval Awareness (% of Graded Samples): 0.3; lab: Alibaba; model: Qwen3.8" role="graphics-symbol" aria-roledescription="line mark" d="M100,784.768L300,721.226L500,67.528" stroke="#c026d3" stroke-width="2" opacity="0.9"/></g></g><path class="foreground" aria-hidden="true" d="" display="none"/></g><g transform="translate(0,0)"><path class="background" aria-hidden="true" d="M0,0h600v800h-600Z"/><g><g class="mark-line role-mark layer_0_marks" role="graphics-object" aria-roledescription="line mark container"><path aria-label="What the Monitor Can See (Pooled Rate): Output only; Eval Awareness (% of Graded Samples): 0.4; lab: DeepSeek; model: DeepSeek V4 Pro" role="graphics-symbol" aria-roledescription="line mark" d="M100,778.805L300,611.863L500,191.389" stroke="#4d6bfe" stroke-width="2" opacity="0.9"/></g></g><path class="foreground" aria-hidden="true" d="" display="none"/></g><g transform="translate(0,0)"><path class="background" aria-hidden="true" d="M0,0h600v800h-600Z"/><g><g class="mark-line role-mark layer_0_marks" role="graphics-object" aria-roledescription="line mark container"><path aria-label="What the Monitor Can See (Pooled Rate): Output only; Eval Awareness (% of Graded Samples): 0.1; lab: Moonshot; model: Kimi K3" role="graphics-symbol" aria-roledescription="line mark" d="M100,794.184L300,704.159L500,42.184" stroke="#fec230" stroke-width="2" opacity="0.9"/></g></g><path class="foreground" aria-hidden="true" d="" display="none"/></g><g transform="translate(0,0)"><path class="background" aria-hidden="true" d="M0,0h600v800h-600Z"/><g><g class="mark-line role-mark layer_0_marks" role="graphics-object" aria-roledescription="line mark container"><path aria-label="What the Monitor Can See (Pooled Rate): Output only; Eval Awareness (% of Graded Samples): 0.3; lab: Z.ai; model: GLM-5.3" role="graphics-symbol" aria-roledescription="line mark" d="M100,786.644L300,758.434L500,136.244" stroke="#dc2626" stroke-width="2" opacity="0.9"/></g></g><path class="foreground" aria-hidden="true" d="" display="none"/></g><g transform="translate(0,0)"><path class="background" aria-hidden="true" d="M0,0h600v800h-600Z"/><g><g class="mark-line role-mark layer_0_marks" role="graphics-object" aria-roledescription="line mark container"><path aria-label="What the Monitor Can See (Pooled Rate): Output only; Eval Awareness (% of Graded Samples): 0.7; lab: MiniMax; model: MiniMax M3" role="graphics-symbol" aria-roledescription="line mark" d="M100,763.547L300,683.307L500,61.737" stroke="#22b8d8" stroke-width="2" opacity="0.9"/></g></g><path class="foreground" aria-hidden="true" d="" display="none"/></g></g><g class="mark-symbol role-mark layer_1_marks" role="graphics-object" aria-roledescription="symbol mark container"><path aria-label="What the Monitor Can See (Pooled Rate): Output only; Eval Awareness (% of Graded Samples): 0.4; lab: Anthropic; model: Claude Sonnet 4.5" role="graphics-symbol" aria-roledescription="point" transform="translate(100,780.6844010270245)" d="M3.708,0A3.708,3.708,0,1,1,-3.708,0A3.708,3.708,0,1,1,3.708,0" fill="#d97757" stroke-width="2" opacity="1"/><path aria-label="What the Monitor Can See (Pooled Rate): Output + CoT; Eval Awareness (% of Graded Samples): 3.9; lab: Anthropic; model: Claude Sonnet 4.5" role="graphics-symbol" aria-roledescription="point" transform="translate(300,649.9054129650982)" d="M3.708,0A3.708,3.708,0,1,1,-3.708,0A3.708,3.708,0,1,1,3.708,0" fill="#d97757" stroke-width="2" opacity="1"/><path aria-label="What the Monitor Can See (Pooled Rate): Self-report; Eval Awareness (% of Graded Samples): 91.6; lab: Anthropic; model: Claude Sonnet 4.5" role="graphics-symbol" aria-roledescription="point" transform="translate(500,21.866184493929275)" d="M3.708,0A3.708,3.708,0,1,1,-3.708,0A3.708,3.708,0,1,1,3.708,0" fill="#d97757" stroke-width="2" opacity="1"/><path aria-label="What the Monitor Can See (Pooled Rate): Output only; Eval Awareness (% of Graded Samples): 3; lab: Anthropic; model: Claude Haiku 4.5" role="graphics-symbol" aria-roledescription="point" transform="translate(100,677.9450901233123)" d="M3.708,0A3.708,3.708,0,1,1,-3.708,0A3.708,3.708,0,1,1,3.708,0" fill="#d97757" stroke-width="2" opacity="1"/><path aria-label="What the Monitor Can See (Pooled Rate): Output + CoT; Eval Awareness (% of Graded Samples): 5.2; lab: Anthropic; model: Claude Haiku 4.5" role="graphics-symbol" aria-roledescription="point" transform="translate(300,613.4547741789642)" d="M3.708,0A3.708,3.708,0,1,1,-3.708,0A3.708,3.708,0,1,1,3.708,0" fill="#d97757" stroke-width="2" opacity="1"/><path aria-label="What the Monitor Can See (Pooled Rate): Self-report; Eval Awareness (% of Graded Samples): 78; lab: Anthropic; model: Claude Haiku 4.5" role="graphics-symbol" aria-roledescription="point" transform="translate(500,61.633349082239164)" d="M3.708,0A3.708,3.708,0,1,1,-3.708,0A3.708,3.708,0,1,1,3.708,0" fill="#d97757" stroke-width="2" opacity="1"/><path aria-label="What the Monitor Can See (Pooled Rate): Output only; Eval Awareness (% of Graded Samples): 0; lab: OpenAI; model: GPT-5" role="graphics-symbol" aria-roledescription="point" transform="translate(100,800)" d="M3.708,0A3.708,3.708,0,1,1,-3.708,0A3.708,3.708,0,1,1,3.708,0" fill="#c8ccd4" stroke-width="2" opacity="1"/><path aria-label="What the Monitor Can See (Pooled Rate): Output + CoT; Eval Awareness (% of Graded Samples): 0.1; lab: OpenAI; model: GPT-5" role="graphics-symbol" aria-roledescription="point" transform="translate(300,795.3180589254931)" d="M3.708,0A3.708,3.708,0,1,1,-3.708,0A3.708,3.708,0,1,1,3.708,0" fill="#c8ccd4" stroke-width="2" opacity="1"/><path aria-label="What the Monitor Can See (Pooled Rate): Self-report; Eval Awareness (% of Graded Samples): 35.1; lab: OpenAI; model: GPT-5" role="graphics-symbol" aria-roledescription="point" transform="translate(500,253.0200513916185)" d="M3.708,0A3.708,3.708,0,1,1,-3.708,0A3.708,3.708,0,1,1,3.708,0" fill="#c8ccd4" stroke-width="2" opacity="1"/><path aria-label="What the Monitor Can See (Pooled Rate): Output only; Eval Awareness (% of Graded Samples): 0; lab: OpenAI; model: GPT-5.1" role="graphics-symbol" aria-roledescription="point" transform="translate(100,800)" d="M3.708,0A3.708,3.708,0,1,1,-3.708,0A3.708,3.708,0,1,1,3.708,0" fill="#c8ccd4" stroke-width="2" opacity="1"/><path aria-label="What the Monitor Can See (Pooled Rate): Output + CoT; Eval Awareness (% of Graded Samples): 0.1; lab: OpenAI; model: GPT-5.1" role="graphics-symbol" aria-roledescription="point" transform="translate(300,797.1730013390256)" d="M3.708,0A3.708,3.708,0,1,1,-3.708,0A3.708,3.708,0,1,1,3.708,0" fill="#c8ccd4" stroke-width="2" opacity="1"/><path aria-label="What the Monitor Can See (Pooled Rate): Self-report; Eval Awareness (% of Graded Samples): 33.9; lab: OpenAI; model: GPT-5.1" role="graphics-symbol" aria-roledescription="point" transform="translate(500,260.9089535788827)" d="M3.708,0A3.708,3.708,0,1,1,-3.708,0A3.708,3.708,0,1,1,3.708,0" fill="#c8ccd4" stroke-width="2" opacity="1"/><path aria-label="What the Monitor Can See (Pooled Rate): Output only; Eval Awareness (% of Graded Samples): 0; lab: OpenAI; model: GPT-5.2" role="graphics-symbol" aria-roledescription="point" transform="translate(100,800)" d="M3.708,0A3.708,3.708,0,1,1,-3.708,0A3.708,3.708,0,1,1,3.708,0" fill="#c8ccd4" stroke-width="2" opacity="1"/><path aria-label="What the Monitor Can See (Pooled Rate): Output + CoT; Eval Awareness (% of Graded Samples): 0; lab: OpenAI; model: GPT-5.2" role="graphics-symbol" aria-roledescription="point" transform="translate(300,800)" d="M3.708,0A3.708,3.708,0,1,1,-3.708,0A3.708,3.708,0,1,1,3.708,0" fill="#c8ccd4" stroke-width="2" opacity="1"/><path aria-label="What the Monitor Can See (Pooled Rate): Self-report; Eval Awareness (% of Graded Samples): 63.1; lab: OpenAI; model: GPT-5.2" role="graphics-symbol" aria-roledescription="point" transform="translate(500,113.87373149275204)" d="M3.708,0A3.708,3.708,0,1,1,-3.708,0A3.708,3.708,0,1,1,3.708,0" fill="#c8ccd4" stroke-width="2" opacity="1"/><path aria-label="What the Monitor Can See (Pooled Rate): Output only; Eval Awareness (% of Graded Samples): 0; lab: OpenAI; model: GPT-5.4" role="graphics-symbol" aria-roledescription="point" transform="translate(100,800)" d="M3.708,0A3.708,3.708,0,1,1,-3.708,0A3.708,3.708,0,1,1,3.708,0" fill="#c8ccd4" stroke-width="2" opacity="1"/><path aria-label="What the Monitor Can See (Pooled Rate): Output + CoT; Eval Awareness (% of Graded Samples): 0; lab: OpenAI; model: GPT-5.4" role="graphics-symbol" aria-roledescription="point" transform="translate(300,800)" d="M3.708,0A3.708,3.708,0,1,1,-3.708,0A3.708,3.708,0,1,1,3.708,0" fill="#c8ccd4" stroke-width="2" opacity="1"/><path aria-label="What the Monitor Can See (Pooled Rate): Self-report; Eval Awareness (% of Graded Samples): 17.8; lab: OpenAI; model: GPT-5.4" role="graphics-symbol" aria-roledescription="point" transform="translate(500,401.1270164971629)" d="M3.708,0A3.708,3.708,0,1,1,-3.708,0A3.708,3.708,0,1,1,3.708,0" fill="#c8ccd4" stroke-width="2" opacity="1"/><path aria-label="What the Monitor Can See (Pooled Rate): Output only; Eval Awareness (% of Graded Samples): 0; lab: OpenAI; model: GPT-5.6" role="graphics-symbol" aria-roledescription="point" transform="translate(100,800)" d="M3.708,0A3.708,3.708,0,1,1,-3.708,0A3.708,3.708,0,1,1,3.708,0" fill="#c8ccd4" stroke-width="2" opacity="1"/><path aria-label="What the Monitor Can See (Pooled Rate): Output + CoT; Eval Awareness (% of Graded Samples): 0; lab: OpenAI; model: GPT-5.6" role="graphics-symbol" aria-roledescription="point" transform="translate(300,800)" d="M3.708,0A3.708,3.708,0,1,1,-3.708,0A3.708,3.708,0,1,1,3.708,0" fill="#c8ccd4" stroke-width="2" opacity="1"/><path aria-label="What the Monitor Can See (Pooled Rate): Self-report; Eval Awareness (% of Graded Samples): 13.2; lab: OpenAI; model: GPT-5.6" role="graphics-symbol" aria-roledescription="point" transform="translate(500,459.84333880183516)" d="M3.708,0A3.708,3.708,0,1,1,-3.708,0A3.708,3.708,0,1,1,3.708,0" fill="#c8ccd4" stroke-width="2" opacity="1"/><path aria-label="What the Monitor Can See (Pooled Rate): Output only; Eval Awareness (% of Graded Samples): 0; lab: Google; model: Gemini 3.5 Flash" role="graphics-symbol" aria-roledescription="point" transform="translate(100,800)" d="M3.708,0A3.708,3.708,0,1,1,-3.708,0A3.708,3.708,0,1,1,3.708,0" fill="#34a853" stroke-width="2" opacity="1"/><path aria-label="What the Monitor Can See (Pooled Rate): Output + CoT; Eval Awareness (% of Graded Samples): 0.5; lab: Google; model: Gemini 3.5 Flash" role="graphics-symbol" aria-roledescription="point" transform="translate(300,775.7215860735171)" d="M3.708,0A3.708,3.708,0,1,1,-3.708,0A3.708,3.708,0,1,1,3.708,0" fill="#34a853" stroke-width="2" opacity="1"/><path aria-label="What the Monitor Can See (Pooled Rate): Self-report; Eval Awareness (% of Graded Samples): 50.8; lab: Google; model: Gemini 3.5 Flash" role="graphics-symbol" aria-roledescription="point" transform="translate(500,165.99845748902771)" d="M3.708,0A3.708,3.708,0,1,1,-3.708,0A3.708,3.708,0,1,1,3.708,0" fill="#34a853" stroke-width="2" opacity="1"/><path aria-label="What the Monitor Can See (Pooled Rate): Output only; Eval Awareness (% of Graded Samples): 0.3; lab: Alibaba; model: Qwen3.8" role="graphics-symbol" aria-roledescription="point" transform="translate(100,784.7683845847235)" d="M3.708,0A3.708,3.708,0,1,1,-3.708,0A3.708,3.708,0,1,1,3.708,0" fill="#c026d3" stroke-width="2" opacity="1"/><path aria-label="What the Monitor Can See (Pooled Rate): Output + CoT; Eval Awareness (% of Graded Samples): 1.7; lab: Alibaba; model: Qwen3.8" role="graphics-symbol" aria-roledescription="point" transform="translate(300,721.2256747450019)" d="M3.708,0A3.708,3.708,0,1,1,-3.708,0A3.708,3.708,0,1,1,3.708,0" fill="#c026d3" stroke-width="2" opacity="1"/><path aria-label="What the Monitor Can See (Pooled Rate): Self-report; Eval Awareness (% of Graded Samples): 76.2; lab: Alibaba; model: Qwen3.8" role="graphics-symbol" aria-roledescription="point" transform="translate(500,67.52809582448025)" d="M3.708,0A3.708,3.708,0,1,1,-3.708,0A3.708,3.708,0,1,1,3.708,0" fill="#c026d3" stroke-width="2" opacity="1"/><path aria-label="What the Monitor Can See (Pooled Rate): Output only; Eval Awareness (% of Graded Samples): 0.4; lab: DeepSeek; model: DeepSeek V4 Pro" role="graphics-symbol" aria-roledescription="point" transform="translate(100,778.8053952985616)" d="M3.708,0A3.708,3.708,0,1,1,-3.708,0A3.708,3.708,0,1,1,3.708,0" fill="#4d6bfe" stroke-width="2" opacity="1"/><path aria-label="What the Monitor Can See (Pooled Rate): Output + CoT; Eval Awareness (% of Graded Samples): 5.2; lab: DeepSeek; model: DeepSeek V4 Pro" role="graphics-symbol" aria-roledescription="point" transform="translate(300,611.8628219347205)" d="M3.708,0A3.708,3.708,0,1,1,-3.708,0A3.708,3.708,0,1,1,3.708,0" fill="#4d6bfe" stroke-width="2" opacity="1"/><path aria-label="What the Monitor Can See (Pooled Rate): Self-report; Eval Awareness (% of Graded Samples): 45.7; lab: DeepSeek; model: DeepSeek V4 Pro" role="graphics-symbol" aria-roledescription="point" transform="translate(500,191.38850030617957)" d="M3.708,0A3.708,3.708,0,1,1,-3.708,0A3.708,3.708,0,1,1,3.708,0" fill="#4d6bfe" stroke-width="2" opacity="1"/><path aria-label="What the Monitor Can See (Pooled Rate): Output only; Eval Awareness (% of Graded Samples): 0.1; lab: Moonshot; model: Kimi K3" role="graphics-symbol" aria-roledescription="point" transform="translate(100,794.1841892067968)" d="M3.708,0A3.708,3.708,0,1,1,-3.708,0A3.708,3.708,0,1,1,3.708,0" fill="#fec230" stroke-width="2" opacity="1"/><path aria-label="What the Monitor Can See (Pooled Rate): Output + CoT; Eval Awareness (% of Graded Samples): 2.2; lab: Moonshot; model: Kimi K3" role="graphics-symbol" aria-roledescription="point" transform="translate(300,704.1593246917206)" d="M3.708,0A3.708,3.708,0,1,1,-3.708,0A3.708,3.708,0,1,1,3.708,0" fill="#fec230" stroke-width="2" opacity="1"/><path aria-label="What the Monitor Can See (Pooled Rate): Self-report; Eval Awareness (% of Graded Samples): 84.4; lab: Moonshot; model: Kimi K3" role="graphics-symbol" aria-roledescription="point" transform="translate(500,42.18359331801791)" d="M3.708,0A3.708,3.708,0,1,1,-3.708,0A3.708,3.708,0,1,1,3.708,0" fill="#fec230" stroke-width="2" opacity="1"/><path aria-label="What the Monitor Can See (Pooled Rate): Output only; Eval Awareness (% of Graded Samples): 0.3; lab: Z.ai; model: GLM-5.3" role="graphics-symbol" aria-roledescription="point" transform="translate(100,786.6441748609786)" d="M3.708,0A3.708,3.708,0,1,1,-3.708,0A3.708,3.708,0,1,1,3.708,0" fill="#dc2626" stroke-width="2" opacity="1"/><path aria-label="What the Monitor Can See (Pooled Rate): Output + CoT; Eval Awareness (% of Graded Samples): 0.9; lab: Z.ai; model: GLM-5.3" role="graphics-symbol" aria-roledescription="point" transform="translate(300,758.4335057616954)" d="M3.708,0A3.708,3.708,0,1,1,-3.708,0A3.708,3.708,0,1,1,3.708,0" fill="#dc2626" stroke-width="2" opacity="1"/><path aria-label="What the Monitor Can See (Pooled Rate): Self-report; Eval Awareness (% of Graded Samples): 57.5; lab: Z.ai; model: GLM-5.3" role="graphics-symbol" aria-roledescription="point" transform="translate(500,136.2440386922982)" d="M3.708,0A3.708,3.708,0,1,1,-3.708,0A3.708,3.708,0,1,1,3.708,0" fill="#dc2626" stroke-width="2" opacity="1"/><path aria-label="What the Monitor Can See (Pooled Rate): Output only; Eval Awareness (% of Graded Samples): 0.7; lab: MiniMax; model: MiniMax M3" role="graphics-symbol" aria-roledescription="point" transform="translate(100,763.5473313560833)" d="M3.708,0A3.708,3.708,0,1,1,-3.708,0A3.708,3.708,0,1,1,3.708,0" fill="#22b8d8" stroke-width="2" opacity="1"/><path aria-label="What the Monitor Can See (Pooled Rate): Output + CoT; Eval Awareness (% of Graded Samples): 2.8; lab: MiniMax; model: MiniMax M3" role="graphics-symbol" aria-roledescription="point" transform="translate(300,683.306986865592)" d="M3.708,0A3.708,3.708,0,1,1,-3.708,0A3.708,3.708,0,1,1,3.708,0" fill="#22b8d8" stroke-width="2" opacity="1"/><path aria-label="What the Monitor Can See (Pooled Rate): Self-report; Eval Awareness (% of Graded Samples): 78; lab: MiniMax; model: MiniMax M3" role="graphics-symbol" aria-roledescription="point" transform="translate(500,61.7368051421205)" d="M3.708,0A3.708,3.708,0,1,1,-3.708,0A3.708,3.708,0,1,1,3.708,0" fill="#22b8d8" stroke-width="2" opacity="1"/></g><g class="mark-group role-scope layer_2_pathgroup" role="graphics-object" aria-roledescription="group mark container"><g transform="translate(0,0)"><path class="background" aria-hidden="true" d="M0,0h600v800h-600Z"/><g><g class="mark-line role-mark layer_2_marks" role="graphics-object" aria-roledescription="line mark container"><path aria-label="What the Monitor Can See (Pooled Rate): Output only; Eval Awareness (% of Graded Samples): 0.3; lab: All 13 models pooled; model: All 13 models pooled" role="graphics-symbol" aria-roledescription="line mark" d="M100,784.481L300,718.29L500,145.739" stroke="#ccd0d8" stroke-width="4" stroke-dasharray="7,5"/></g></g><path class="foreground" aria-hidden="true" d="" display="none"/></g></g><g class="mark-symbol role-mark layer_3_marks" role="graphics-object" aria-roledescription="symbol mark container"><path aria-label="What the Monitor Can See (Pooled Rate): Output only; Eval Awareness (% of Graded Samples): 0.3; lab: All 13 models pooled; model: All 13 models pooled" role="graphics-symbol" aria-roledescription="point" transform="translate(100,784.4808413469831)" d="M5.244,0A5.244,5.244,0,1,1,-5.244,0A5.244,5.244,0,1,1,5.244,0" fill="#ccd0d8" stroke-width="2" opacity="1"/><path aria-label="What the Monitor Can See (Pooled Rate): Output + CoT; Eval Awareness (% of Graded Samples): 1.8; lab: All 13 models pooled; model: All 13 models pooled" role="graphics-symbol" aria-roledescription="point" transform="translate(300,718.2896992825215)" d="M5.244,0A5.244,5.244,0,1,1,-5.244,0A5.244,5.244,0,1,1,5.244,0" fill="#ccd0d8" stroke-width="2" opacity="1"/><path aria-label="What the Monitor Can See (Pooled Rate): Self-report; Eval Awareness (% of Graded Samples): 55.3; lab: All 13 models pooled; model: All 13 models pooled" role="graphics-symbol" aria-roledescription="point" transform="translate(500,145.73945734673214)" d="M5.244,0A5.244,5.244,0,1,1,-5.244,0A5.244,5.244,0,1,1,5.244,0" fill="#ccd0d8" stroke-width="2" opacity="1"/></g><g class="mark-text role-mark layer_4_marks" role="graphics-object" aria-roledescription="text mark container"><text aria-label="stage: Self-report; y: 13.2461873638; lab: OpenAI; txt: GPT-5.6  13%" role="graphics-symbol" aria-roledescription="text mark" text-anchor="start" transform="translate(512,463.84333880183516)" font-family="system-ui, -apple-system, Segoe UI, Helvetica, Arial, sans-serif" font-size="14.7px" fill="#c8ccd4">GPT-5.6  13%</text><text aria-label="stage: Self-report; y: 17.8148148148; lab: OpenAI; txt: GPT-5.4  18%" role="graphics-symbol" aria-roledescription="text mark" text-anchor="start" transform="translate(512,405.1270164971629)" font-family="system-ui, -apple-system, Segoe UI, Helvetica, Arial, sans-serif" font-size="14.7px" fill="#c8ccd4">GPT-5.4  18%</text><text aria-label="stage: Self-report; y: 33.9014449796; lab: OpenAI; txt: GPT-5.1  34%" role="graphics-symbol" aria-roledescription="text mark" text-anchor="start" transform="translate(512,264.9089535788827)" font-family="system-ui, -apple-system, Segoe UI, Helvetica, Arial, sans-serif" font-size="14.7px" fill="#c8ccd4">GPT-5.1  34%</text><text aria-label="stage: Self-report; y: 36.3705305836; lab: OpenAI; txt: GPT-5  35%" role="graphics-symbol" aria-roledescription="text mark" text-anchor="start" transform="translate(512,248.7389535788827)" font-family="system-ui, -apple-system, Segoe UI, Helvetica, Arial, sans-serif" font-size="14.7px" fill="#c8ccd4">GPT-5  35%</text><text aria-label="stage: Self-report; y: 45.6835865135; lab: DeepSeek; txt: DeepSeek V4 Pro  46%" role="graphics-symbol" aria-roledescription="text mark" text-anchor="start" transform="translate(512,195.38850030617957)" font-family="system-ui, -apple-system, Segoe UI, Helvetica, Arial, sans-serif" font-size="14.7px" fill="#4d6bfe">DeepSeek V4 Pro  46%</text><text aria-label="stage: Self-report; y: 50.8253358925; lab: Google; txt: Gemini 3.5 Flash  51%" role="graphics-symbol" aria-roledescription="text mark" text-anchor="start" transform="translate(512,169.99845748902771)" font-family="system-ui, -apple-system, Segoe UI, Helvetica, Arial, sans-serif" font-size="14.7px" fill="#34a853">Gemini 3.5 Flash  51%</text><text aria-label="stage: Self-report; y: 59.1269011098; lab: Z.ai; txt: GLM-5.3  58%" role="graphics-symbol" aria-roledescription="text mark" text-anchor="start" transform="translate(512,133.56945734673218)" font-family="system-ui, -apple-system, Segoe UI, Helvetica, Arial, sans-serif" font-size="14.7px" fill="#dc2626">GLM-5.3  58%</text><text aria-label="stage: Self-report; y: 63.1970534766; lab: OpenAI; txt: GPT-5.2  63%" role="graphics-symbol" aria-roledescription="text mark" text-anchor="start" transform="translate(512,117.3994573467322)" font-family="system-ui, -apple-system, Segoe UI, Helvetica, Arial, sans-serif" font-size="14.7px" fill="#c8ccd4">GPT-5.2  63%</text><text aria-label="stage: Self-report; y: 76.204595997; lab: Alibaba; txt: Qwen3.8  76%" role="graphics-symbol" aria-roledescription="text mark" text-anchor="start" transform="translate(512,71.52809582448025)" font-family="system-ui, -apple-system, Segoe UI, Helvetica, Arial, sans-serif" font-size="14.7px" fill="#c026d3">Qwen3.8  76%</text><text aria-label="stage: Self-report; y: 81.3586744395; lab: MiniMax; txt: MiniMax M3  78%" role="graphics-symbol" aria-roledescription="text mark" text-anchor="start" transform="translate(512,55.35809582448027)" font-family="system-ui, -apple-system, Segoe UI, Helvetica, Arial, sans-serif" font-size="14.7px" fill="#22b8d8">MiniMax M3  78%</text><text aria-label="stage: Self-report; y: 86.8398836836; lab: Anthropic; txt: Claude Haiku 4.5  78%" role="graphics-symbol" aria-roledescription="text mark" text-anchor="start" transform="translate(512,39.18809582448039)" font-family="system-ui, -apple-system, Segoe UI, Helvetica, Arial, sans-serif" font-size="14.7px" fill="#d97757">Claude Haiku 4.5  78%</text><text aria-label="stage: Self-report; y: 92.6689868131; lab: Moonshot; txt: Kimi K3  84%" role="graphics-symbol" aria-roledescription="text mark" text-anchor="start" transform="translate(512,23.01809582448033)" font-family="system-ui, -apple-system, Segoe UI, Helvetica, Arial, sans-serif" font-size="14.7px" fill="#fec230">Kimi K3  84%</text><text aria-label="stage: Self-report; y: 98.8680647501; lab: Anthropic; txt: Claude Sonnet 4.5  92%" role="graphics-symbol" aria-roledescription="text mark" text-anchor="start" transform="translate(512,6.848095824480268)" font-family="system-ui, -apple-system, Segoe UI, Helvetica, Arial, sans-serif" font-size="14.7px" fill="#d97757">Claude Sonnet 4.5  92%</text></g><g class="mark-text role-mark layer_5_marks" role="graphics-object" aria-roledescription="text mark container"><text aria-label="stage: Self-report; y: 55.2996645208; lab: All 13 models pooled; txt: All 13 models pooled  55%" role="graphics-symbol" aria-roledescription="text mark" text-anchor="start" transform="translate(512,149.73945734673214)" font-family="system-ui, -apple-system, Segoe UI, Helvetica, Arial, sans-serif" font-size="14.7px" font-weight="bold" fill="#ccd0d8">All 13 models pooled  55%</text></g><g class="mark-group role-legend" role="graphics-symbol" aria-roledescription="legend" aria-label="Symbol legend for fill color and stroke color with 9 values: Anthropic, OpenAI, Google, Alibaba, DeepSeek, ending with All 13 models pooled"><g transform="translate(8,8)"><path class="background" aria-hidden="true" d="M0,0h95v142h-95Z" pointer-events="none"/><g><g class="mark-group role-legend-entry"><g transform="translate(0,0)"><path class="background" aria-hidden="true" d="M0,0h0v0h0Z" pointer-events="none"/><g><g class="mark-group role-scope" role="graphics-object" aria-roledescription="group mark container"><g transform="translate(0,0)"><path class="background" aria-hidden="true" d="M0,0h94.71875v16h-94.71875Z" pointer-events="none" opacity="1"/><g><g class="mark-symbol role-legend-symbol" pointer-events="none"><path transform="translate(8,8)" d="M-5,0L5,0" fill="#d97757" stroke="#d97757" stroke-width="3" opacity="0.9"/></g><g class="mark-text role-legend-label" pointer-events="none"><text text-anchor="start" transform="translate(20,13)" font-family="system-ui, -apple-system, Segoe UI, Helvetica, Arial, sans-serif" font-size="16px" fill="#ccd0d8" opacity="1">Anthropic</text></g></g><path class="foreground" aria-hidden="true" d="" pointer-events="none" display="none"/></g><g transform="translate(0,18)"><path class="background" aria-hidden="true" d="M0,0h94.71875v16h-94.71875Z" pointer-events="none" opacity="1"/><g><g class="mark-symbol role-legend-symbol" pointer-events="none"><path transform="translate(8,8)" d="M-5,0L5,0" fill="#c8ccd4" stroke="#c8ccd4" stroke-width="3" opacity="0.9"/></g><g class="mark-text role-legend-label" pointer-events="none"><text text-anchor="start" transform="translate(20,13)" font-family="system-ui, -apple-system, Segoe UI, Helvetica, Arial, sans-serif" font-size="16px" fill="#ccd0d8" opacity="1">OpenAI</text></g></g><path class="foreground" aria-hidden="true" d="" pointer-events="none" display="none"/></g><g transform="translate(0,36)"><path class="background" aria-hidden="true" d="M0,0h94.71875v16h-94.71875Z" pointer-events="none" opacity="1"/><g><g class="mark-symbol role-legend-symbol" pointer-events="none"><path transform="translate(8,8)" d="M-5,0L5,0" fill="#34a853" stroke="#34a853" stroke-width="3" opacity="0.9"/></g><g class="mark-text role-legend-label" pointer-events="none"><text text-anchor="start" transform="translate(20,13)" font-family="system-ui, -apple-system, Segoe UI, Helvetica, Arial, sans-serif" font-size="16px" fill="#ccd0d8" opacity="1">Google</text></g></g><path class="foreground" aria-hidden="true" d="" pointer-events="none" display="none"/></g><g transform="translate(0,54)"><path class="background" aria-hidden="true" d="M0,0h94.71875v16h-94.71875Z" pointer-events="none" opacity="1"/><g><g class="mark-symbol role-legend-symbol" pointer-events="none"><path transform="translate(8,8)" d="M-5,0L5,0" fill="#c026d3" stroke="#c026d3" stroke-width="3" opacity="0.9"/></g><g class="mark-text role-legend-label" pointer-events="none"><text text-anchor="start" transform="translate(20,13)" font-family="system-ui, -apple-system, Segoe UI, Helvetica, Arial, sans-serif" font-size="16px" fill="#ccd0d8" opacity="1">Alibaba</text></g></g><path class="foreground" aria-hidden="true" d="" pointer-events="none" display="none"/></g><g transform="translate(0,72)"><path class="background" aria-hidden="true" d="M0,0h94.71875v16h-94.71875Z" pointer-events="none" opacity="1"/><g><g class="mark-symbol role-legend-symbol" pointer-events="none"><path transform="translate(8,8)" d="M-5,0L5,0" fill="#4d6bfe" stroke="#4d6bfe" stroke-width="3" opacity="0.9"/></g><g class="mark-text role-legend-label" pointer-events="none"><text text-anchor="start" transform="translate(20,13)" font-family="system-ui, -apple-system, Segoe UI, Helvetica, Arial, sans-serif" font-size="16px" fill="#ccd0d8" opacity="1">DeepSeek</text></g></g><path class="foreground" aria-hidden="true" d="" pointer-events="none" display="none"/></g><g transform="translate(0,90)"><path class="background" aria-hidden="true" d="M0,0h94.71875v16h-94.71875Z" pointer-events="none" opacity="1"/><g><g class="mark-symbol role-legend-symbol" pointer-events="none"><path transform="translate(8,8)" d="M-5,0L5,0" fill="#fec230" stroke="#fec230" stroke-width="3" opacity="0.9"/></g><g class="mark-text role-legend-label" pointer-events="none"><text text-anchor="start" transform="translate(20,13)" font-family="system-ui, -apple-system, Segoe UI, Helvetica, Arial, sans-serif" font-size="16px" fill="#ccd0d8" opacity="1">Moonshot</text></g></g><path class="foreground" aria-hidden="true" d="" pointer-events="none" display="none"/></g><g transform="translate(0,108)"><path class="background" aria-hidden="true" d="M0,0h94.71875v16h-94.71875Z" pointer-events="none" opacity="1"/><g><g class="mark-symbol role-legend-symbol" pointer-events="none"><path transform="translate(8,8)" d="M-5,0L5,0" fill="#dc2626" stroke="#dc2626" stroke-width="3" opacity="0.9"/></g><g class="mark-text role-legend-label" pointer-events="none"><text text-anchor="start" transform="translate(20,13)" font-family="system-ui, -apple-system, Segoe UI, Helvetica, Arial, sans-serif" font-size="16px" fill="#ccd0d8" opacity="1">Z.ai</text></g></g><path class="foreground" aria-hidden="true" d="" pointer-events="none" display="none"/></g><g transform="translate(0,126)"><path class="background" aria-hidden="true" d="M0,0h94.71875v16h-94.71875Z" pointer-events="none" opacity="1"/><g><g class="mark-symbol role-legend-symbol" pointer-events="none"><path transform="translate(8,8)" d="M-5,0L5,0" fill="#22b8d8" stroke="#22b8d8" stroke-width="3" opacity="0.9"/></g><g class="mark-text role-legend-label" pointer-events="none"><text text-anchor="start" transform="translate(20,13)" font-family="system-ui, -apple-system, Segoe UI, Helvetica, Arial, sans-serif" font-size="16px" fill="#ccd0d8" opacity="1">MiniMax</text></g></g><path class="foreground" aria-hidden="true" d="" pointer-events="none" display="none"/></g></g></g><path class="foreground" aria-hidden="true" d="" pointer-events="none" display="none"/></g></g></g><path class="foreground" aria-hidden="true" d="" pointer-events="none" display="none"/></g></g><g class="mark-group role-title"><g transform="translate(-58.86430358886719,-72.7)"><path class="background" aria-hidden="true" d="M0,0h0v0h0Z" pointer-events="none"/><g><g class="mark-text role-title-text" role="graphics-symbol" aria-roledescription="title" aria-label="Title text 'Eval Awareness by What the Monitor Can See'" pointer-events="none"><text text-anchor="start" transform="translate(0,18)" font-family="system-ui, -apple-system, Segoe UI, Helvetica, Arial, sans-serif" font-size="22.7px" font-weight="bold" fill="#ccd0d8" opacity="1">Eval Awareness by What the Monitor Can See</text></g><g class="mark-text role-title-subtitle" role="graphics-symbol" aria-roledescription="subtitle" aria-label="Subtitle text 'Safety tasks, all factor configs pooled, 13 models. Stages 1-2: GPT-5.6 judge reads the transcript without / with CoT. Stage 3: the model is asked. Log-ish y axis.'" pointer-events="none"><text text-anchor="start" transform="translate(0,38.7)" font-family="system-ui, -apple-system, Segoe UI, Helvetica, Arial, sans-serif" font-size="16px" fill="#8b919d" opacity="1"><tspan>Safety tasks, all factor configs pooled, 13 models. Stages 1-2: GPT-5.6 judge</tspan><tspan x="0" dy="18">reads the transcript without / with CoT. Stage 3: the model is asked. Log-ish y axis.</tspan></text></g></g><path class="foreground" aria-hidden="true" d="" pointer-events="none" display="none"/></g></g></g><path class="foreground" aria-hidden="true" d="" display="none"/></g></g></g></svg>