<svg xmlns="http://www.w3.org/2000/svg" xmlns:xlink="http://www.w3.org/1999/xlink" version="1.1" class="marks" width="580" height="409" viewBox="0 0 580 409"><rect width="580" height="409" fill="#1a1d24"/><g fill="none" stroke-miterlimit="10" transform="translate(61,28)"><g class="mark-group role-frame root" role="graphics-object" aria-roledescription="group mark container"><g transform="translate(0,0)"><path class="background" aria-hidden="true" d="M0,0h500v336h-500Z"/><g><g class="mark-group role-axis" aria-hidden="true"><g transform="translate(0.5,336.5)"><path class="background" aria-hidden="true" d="M0,0h0v0h0Z" pointer-events="none"/><g><g class="mark-rule role-axis-grid" pointer-events="none"><line transform="translate(0,0)" x2="0" y2="-336" stroke="#2e333d" stroke-width="1" opacity="1"/><line transform="translate(42,0)" x2="0" y2="-336" stroke="#2e333d" stroke-width="1" opacity="1"/><line transform="translate(83,0)" x2="0" y2="-336" stroke="#2e333d" stroke-width="1" opacity="1"/><line transform="translate(125,0)" x2="0" y2="-336" stroke="#2e333d" stroke-width="1" opacity="1"/><line transform="translate(167,0)" x2="0" y2="-336" stroke="#2e333d" stroke-width="1" opacity="1"/><line transform="translate(208,0)" x2="0" y2="-336" stroke="#2e333d" stroke-width="1" opacity="1"/><line transform="translate(250,0)" x2="0" y2="-336" stroke="#2e333d" stroke-width="1" opacity="1"/><line transform="translate(292,0)" x2="0" y2="-336" stroke="#2e333d" stroke-width="1" opacity="1"/><line transform="translate(333,0)" x2="0" y2="-336" stroke="#2e333d" stroke-width="1" opacity="1"/><line transform="translate(375,0)" x2="0" y2="-336" stroke="#2e333d" stroke-width="1" opacity="1"/><line transform="translate(417,0)" x2="0" y2="-336" stroke="#2e333d" stroke-width="1" opacity="1"/><line transform="translate(458,0)" x2="0" y2="-336" stroke="#2e333d" stroke-width="1" opacity="1"/><line transform="translate(500,0)" x2="0" y2="-336" stroke="#2e333d" stroke-width="1" opacity="1"/></g></g><path class="foreground" aria-hidden="true" d="" pointer-events="none" display="none"/></g></g><g class="mark-group role-axis" role="graphics-symbol" aria-roledescription="axis" aria-label="X-axis titled 'Share of Training Proofs Using the Rule (%)' for a linear scale with values from 0 to 60"><g transform="translate(0.5,336.5)"><path class="background" aria-hidden="true" d="M0,0h0v0h0Z" pointer-events="none"/><g><g class="mark-rule role-axis-tick" pointer-events="none"><line transform="translate(0,0)" x2="0" y2="5" stroke="#8b919d" stroke-width="1" opacity="1"/><line transform="translate(42,0)" x2="0" y2="5" stroke="#8b919d" stroke-width="1" opacity="1"/><line transform="translate(83,0)" x2="0" y2="5" stroke="#8b919d" stroke-width="1" opacity="1"/><line transform="translate(125,0)" x2="0" y2="5" stroke="#8b919d" stroke-width="1" opacity="1"/><line transform="translate(167,0)" x2="0" y2="5" stroke="#8b919d" stroke-width="1" opacity="1"/><line transform="translate(208,0)" x2="0" y2="5" stroke="#8b919d" stroke-width="1" opacity="1"/><line transform="translate(250,0)" x2="0" y2="5" stroke="#8b919d" stroke-width="1" opacity="1"/><line transform="translate(292,0)" x2="0" y2="5" stroke="#8b919d" stroke-width="1" opacity="1"/><line transform="translate(333,0)" x2="0" y2="5" stroke="#8b919d" stroke-width="1" opacity="1"/><line transform="translate(375,0)" x2="0" y2="5" stroke="#8b919d" stroke-width="1" opacity="1"/><line transform="translate(417,0)" x2="0" y2="5" stroke="#8b919d" stroke-width="1" opacity="1"/><line transform="translate(458,0)" x2="0" y2="5" stroke="#8b919d" stroke-width="1" opacity="1"/><line transform="translate(500,0)" x2="0" y2="5" stroke="#8b919d" stroke-width="1" opacity="1"/></g><g class="mark-text role-axis-label" pointer-events="none"><text text-anchor="start" transform="translate(0,18)" font-family="system-ui, -apple-system, Segoe UI, Helvetica, Arial, sans-serif" font-size="14.4px" fill="#ccd0d8" opacity="1">0</text><text text-anchor="middle" transform="translate(41.666666666666664,18)" font-family="system-ui, -apple-system, Segoe UI, Helvetica, Arial, sans-serif" font-size="14.4px" fill="#ccd0d8" opacity="1">5</text><text text-anchor="middle" transform="translate(83.33333333333333,18)" font-family="system-ui, -apple-system, Segoe UI, Helvetica, Arial, sans-serif" font-size="14.4px" fill="#ccd0d8" opacity="1">10</text><text text-anchor="middle" transform="translate(125,18)" font-family="system-ui, -apple-system, Segoe UI, Helvetica, Arial, sans-serif" font-size="14.4px" fill="#ccd0d8" opacity="1">15</text><text text-anchor="middle" transform="translate(166.66666666666666,18)" font-family="system-ui, -apple-system, Segoe UI, Helvetica, Arial, sans-serif" font-size="14.4px" fill="#ccd0d8" opacity="1">20</text><text text-anchor="middle" transform="translate(208.33333333333334,18)" font-family="system-ui, -apple-system, Segoe UI, Helvetica, Arial, sans-serif" font-size="14.4px" fill="#ccd0d8" opacity="1">25</text><text text-anchor="middle" transform="translate(250,18)" font-family="system-ui, -apple-system, Segoe UI, Helvetica, Arial, sans-serif" font-size="14.4px" fill="#ccd0d8" opacity="1">30</text><text text-anchor="middle" transform="translate(291.6666666666667,18)" font-family="system-ui, -apple-system, Segoe UI, Helvetica, Arial, sans-serif" font-size="14.4px" fill="#ccd0d8" opacity="1">35</text><text text-anchor="middle" transform="translate(333.3333333333333,18)" font-family="system-ui, -apple-system, Segoe UI, Helvetica, Arial, sans-serif" font-size="14.4px" fill="#ccd0d8" opacity="1">40</text><text text-anchor="middle" transform="translate(375,18)" font-family="system-ui, -apple-system, Segoe UI, Helvetica, Arial, sans-serif" font-size="14.4px" fill="#ccd0d8" opacity="1">45</text><text text-anchor="middle" transform="translate(416.6666666666667,18)" font-family="system-ui, -apple-system, Segoe UI, Helvetica, Arial, sans-serif" font-size="14.4px" fill="#ccd0d8" opacity="1">50</text><text text-anchor="middle" transform="translate(458.3333333333333,18)" font-family="system-ui, -apple-system, Segoe UI, Helvetica, Arial, sans-serif" font-size="14.4px" fill="#ccd0d8" opacity="1">55</text><text text-anchor="end" transform="translate(500,18)" font-family="system-ui, -apple-system, Segoe UI, Helvetica, Arial, sans-serif" font-size="14.4px" fill="#ccd0d8" opacity="1">60</text></g><g class="mark-rule role-axis-domain" pointer-events="none"><line transform="translate(0,0)" x2="500" y2="0" stroke="#8b919d" stroke-width="1" opacity="1"/></g><g class="mark-text role-axis-title" pointer-events="none"><text text-anchor="middle" transform="translate(250,36.4)" font-family="system-ui, -apple-system, Segoe UI, Helvetica, Arial, sans-serif" font-size="15.6px" font-weight="bold" fill="#ccd0d8" opacity="1">Share of Training Proofs Using the Rule (%)</text></g></g><path class="foreground" aria-hidden="true" d="" pointer-events="none" display="none"/></g></g><g class="mark-group role-axis" role="graphics-symbol" aria-roledescription="axis" aria-label="Y-axis for a discrete scale with 14 values: IMPE, ANDE1, ANDE2, NEGE, BOTE, ending with NEGI"><g transform="translate(0.5,0.5)"><path class="background" aria-hidden="true" d="M0,0h0v0h0Z" pointer-events="none"/><g><g class="mark-rule role-axis-tick" pointer-events="none"><line transform="translate(0,11)" x2="-5" y2="0" stroke="#8b919d" stroke-width="1" opacity="1"/><line transform="translate(0,35)" x2="-5" y2="0" stroke="#8b919d" stroke-width="1" opacity="1"/><line transform="translate(0,59)" x2="-5" y2="0" stroke="#8b919d" stroke-width="1" opacity="1"/><line transform="translate(0,83)" x2="-5" y2="0" stroke="#8b919d" stroke-width="1" opacity="1"/><line transform="translate(0,107)" x2="-5" y2="0" stroke="#8b919d" stroke-width="1" opacity="1"/><line transform="translate(0,132)" x2="-5" y2="0" stroke="#8b919d" stroke-width="1" opacity="1"/><line transform="translate(0,156)" x2="-5" y2="0" stroke="#8b919d" stroke-width="1" opacity="1"/><line transform="translate(0,180)" x2="-5" y2="0" stroke="#8b919d" stroke-width="1" opacity="1"/><line transform="translate(0,204)" x2="-5" y2="0" stroke="#8b919d" stroke-width="1" opacity="1"/><line transform="translate(0,228)" x2="-5" y2="0" stroke="#8b919d" stroke-width="1" opacity="1"/><line transform="translate(0,252)" x2="-5" y2="0" stroke="#8b919d" stroke-width="1" opacity="1"/><line transform="translate(0,276)" x2="-5" y2="0" stroke="#8b919d" stroke-width="1" opacity="1"/><line transform="translate(0,300)" x2="-5" y2="0" stroke="#8b919d" stroke-width="1" opacity="1"/><line transform="translate(0,324)" x2="-5" y2="0" stroke="#8b919d" stroke-width="1" opacity="1"/></g><g class="mark-text role-axis-label" pointer-events="none"><text text-anchor="end" transform="translate(-7,15.49999999999999)" font-family="system-ui, -apple-system, Segoe UI, Helvetica, Arial, sans-serif" font-size="14.4px" fill="#ccd0d8" opacity="1">IMPE</text><text text-anchor="end" transform="translate(-7,39.499999999999986)" font-family="system-ui, -apple-system, Segoe UI, Helvetica, Arial, sans-serif" font-size="14.4px" fill="#ccd0d8" opacity="1">ANDE1</text><text text-anchor="end" transform="translate(-7,63.499999999999986)" font-family="system-ui, -apple-system, Segoe UI, Helvetica, Arial, sans-serif" font-size="14.4px" fill="#ccd0d8" opacity="1">ANDE2</text><text text-anchor="end" transform="translate(-7,87.49999999999999)" font-family="system-ui, -apple-system, Segoe UI, Helvetica, Arial, sans-serif" font-size="14.4px" fill="#ccd0d8" opacity="1">NEGE</text><text text-anchor="end" transform="translate(-7,111.49999999999999)" font-family="system-ui, -apple-system, Segoe UI, Helvetica, Arial, sans-serif" font-size="14.4px" fill="#ccd0d8" opacity="1">BOTE</text><text text-anchor="end" transform="translate(-7,135.5)" font-family="system-ui, -apple-system, Segoe UI, Helvetica, Arial, sans-serif" font-size="14.4px" fill="#ccd0d8" opacity="1">ANDI</text><text text-anchor="end" transform="translate(-7,159.5)" font-family="system-ui, -apple-system, Segoe UI, Helvetica, Arial, sans-serif" font-size="14.4px" fill="#ccd0d8" opacity="1">ORI1</text><text text-anchor="end" transform="translate(-7,183.5)" font-family="system-ui, -apple-system, Segoe UI, Helvetica, Arial, sans-serif" font-size="14.4px" fill="#ccd0d8" opacity="1">ORI2</text><text text-anchor="end" transform="translate(-7,207.5)" font-family="system-ui, -apple-system, Segoe UI, Helvetica, Arial, sans-serif" font-size="14.4px" fill="#ccd0d8" opacity="1">DN</text><text text-anchor="end" transform="translate(-7,231.5)" font-family="system-ui, -apple-system, Segoe UI, Helvetica, Arial, sans-serif" font-size="14.4px" fill="#ccd0d8" opacity="1">AS</text><text text-anchor="end" transform="translate(-7,255.5)" font-family="system-ui, -apple-system, Segoe UI, Helvetica, Arial, sans-serif" font-size="14.4px" fill="#ccd0d8" opacity="1">IMPI</text><text text-anchor="end" transform="translate(-7,279.5)" font-family="system-ui, -apple-system, Segoe UI, Helvetica, Arial, sans-serif" font-size="14.4px" fill="#ccd0d8" opacity="1">REIT</text><text text-anchor="end" transform="translate(-7,303.5)" font-family="system-ui, -apple-system, Segoe UI, Helvetica, Arial, sans-serif" font-size="14.4px" fill="#ccd0d8" opacity="1">ORE</text><text text-anchor="end" transform="translate(-7,327.5)" font-family="system-ui, -apple-system, Segoe UI, Helvetica, Arial, sans-serif" font-size="14.4px" fill="#ccd0d8" opacity="1">NEGI</text></g><g class="mark-rule role-axis-domain" pointer-events="none"><line transform="translate(0,0)" x2="0" y2="336" stroke="#8b919d" stroke-width="1" opacity="1"/></g></g><path class="foreground" aria-hidden="true" d="" pointer-events="none" display="none"/></g></g><g class="mark-group role-scope" role="graphics-object" aria-roledescription="group mark container"><g transform="translate(0,1.1999999999999886)"><path class="background" aria-hidden="true" d="M0,0L469.96953551723027,0C471.6252805907123,0,472.96953551723027,1.344254926518,472.96953551723027,3L472.96953551723027,18.6C472.96953551723027,20.255745073482,471.6252805907123,21.6,469.96953551723027,21.6L0,21.6C0,21.6,0,21.6,0,21.6L0,0C0,0,0,0,0,0Z" stroke-width="1"/><g clip-path="url(#clip1)"><g class="mark-group role-scope" role="graphics-object" aria-roledescription="group mark container"><g transform="translate(0,0)"><path class="background" aria-hidden="true" d="M0,0h0v21.6h0Z"/><g><g class="mark-rect role-mark layer_0_marks" role="graphics-object" aria-roledescription="rect mark container"><path aria-label="Share of Training Proofs Using the Rule (%): 56.7563442621; rule: IMPE; kind: Local" role="graphics-symbol" aria-roledescription="bar" d="M0,0h472.96953551723027v21.6h-472.96953551723027Z" fill="#8b919d" stroke="#1a1d24" stroke-width="1"/></g></g><path class="foreground" aria-hidden="true" d="" display="none"/></g></g></g><path class="foreground" aria-hidden="true" d="M0,0L469.96953551723027,0C471.6252805907123,0,472.96953551723027,1.344254926518,472.96953551723027,3L472.96953551723027,18.6C472.96953551723027,20.255745073482,471.6252805907123,21.6,469.96953551723027,21.6L0,21.6C0,21.6,0,21.6,0,21.6L0,0C0,0,0,0,0,0Z" stroke="#1a1d24" stroke-width="1"/></g><g transform="translate(0,25.19999999999999)"><path class="background" aria-hidden="true" d="M0,0L269.11415278028295,0C270.769897853765,0,272.11415278028295,1.344254926518,272.11415278028295,3L272.11415278028295,18.6C272.11415278028295,20.255745073482,270.769897853765,21.6,269.11415278028295,21.6L0,21.6C0,21.6,0,21.6,0,21.6L0,0C0,0,0,0,0,0Z" stroke-width="1"/><g clip-path="url(#clip2)"><g class="mark-group role-scope" role="graphics-object" aria-roledescription="group mark container"><g transform="translate(0,0)"><path class="background" aria-hidden="true" d="M0,0h0v21.6h0Z"/><g><g class="mark-rect role-mark layer_0_marks" role="graphics-object" aria-roledescription="rect mark container"><path aria-label="Share of Training Proofs Using the Rule (%): 32.6536983336; rule: ANDE1; kind: Local" role="graphics-symbol" aria-roledescription="bar" d="M0,0h272.11415278028295v21.6h-272.11415278028295Z" fill="#8b919d" stroke="#1a1d24" stroke-width="1"/></g></g><path class="foreground" aria-hidden="true" d="" display="none"/></g></g></g><path class="foreground" aria-hidden="true" d="M0,0L269.11415278028295,0C270.769897853765,0,272.11415278028295,1.344254926518,272.11415278028295,3L272.11415278028295,18.6C272.11415278028295,20.255745073482,270.769897853765,21.6,269.11415278028295,21.6L0,21.6C0,21.6,0,21.6,0,21.6L0,0C0,0,0,0,0,0Z" stroke="#1a1d24" stroke-width="1"/></g><g transform="translate(0,49.19999999999999)"><path class="background" aria-hidden="true" d="M0,0L265.44310629500643,0C267.09885136848845,0,268.44310629500643,1.344254926518,268.44310629500643,3L268.44310629500643,18.6C268.44310629500643,20.255745073482,267.09885136848845,21.6,265.44310629500643,21.6L0,21.6C0,21.6,0,21.6,0,21.6L0,0C0,0,0,0,0,0Z" stroke-width="1"/><g clip-path="url(#clip3)"><g class="mark-group role-scope" role="graphics-object" aria-roledescription="group mark container"><g transform="translate(0,0)"><path class="background" aria-hidden="true" d="M0,0h0v21.6h0Z"/><g><g class="mark-rect role-mark layer_0_marks" role="graphics-object" aria-roledescription="rect mark container"><path aria-label="Share of Training Proofs Using the Rule (%): 32.2131727554; rule: ANDE2; kind: Local" role="graphics-symbol" aria-roledescription="bar" d="M0,0h268.44310629500643v21.6h-268.44310629500643Z" fill="#8b919d" stroke="#1a1d24" stroke-width="1"/></g></g><path class="foreground" aria-hidden="true" d="" display="none"/></g></g></g><path class="foreground" aria-hidden="true" d="M0,0L265.44310629500643,0C267.09885136848845,0,268.44310629500643,1.344254926518,268.44310629500643,3L268.44310629500643,18.6C268.44310629500643,20.255745073482,267.09885136848845,21.6,265.44310629500643,21.6L0,21.6C0,21.6,0,21.6,0,21.6L0,0C0,0,0,0,0,0Z" stroke="#1a1d24" stroke-width="1"/></g><g transform="translate(0,73.19999999999999)"><path class="background" aria-hidden="true" d="M0,0L161.60163075400402,0C163.25737582748602,0,164.60163075400402,1.344254926518,164.60163075400402,3L164.60163075400402,18.6C164.60163075400402,20.255745073482,163.25737582748602,21.6,161.60163075400402,21.6L0,21.6C0,21.6,0,21.6,0,21.6L0,0C0,0,0,0,0,0Z" stroke-width="1"/><g clip-path="url(#clip4)"><g class="mark-group role-scope" role="graphics-object" aria-roledescription="group mark container"><g transform="translate(0,0)"><path class="background" aria-hidden="true" d="M0,0h0v21.6h0Z"/><g><g class="mark-rect role-mark layer_0_marks" role="graphics-object" aria-roledescription="rect mark container"><path aria-label="Share of Training Proofs Using the Rule (%): 19.7521956905; rule: NEGE; kind: Local" role="graphics-symbol" aria-roledescription="bar" d="M0,0h164.60163075400402v21.6h-164.60163075400402Z" fill="#8b919d" stroke="#1a1d24" stroke-width="1"/></g></g><path class="foreground" aria-hidden="true" d="" display="none"/></g></g></g><path class="foreground" aria-hidden="true" d="M0,0L161.60163075400402,0C163.25737582748602,0,164.60163075400402,1.344254926518,164.60163075400402,3L164.60163075400402,18.6C164.60163075400402,20.255745073482,163.25737582748602,21.6,161.60163075400402,21.6L0,21.6C0,21.6,0,21.6,0,21.6L0,0C0,0,0,0,0,0Z" stroke="#1a1d24" stroke-width="1"/></g><g transform="translate(0,97.19999999999999)"><path class="background" aria-hidden="true" d="M0,0L155.76264343096582,0C157.41838850444782,0,158.76264343096582,1.344254926518,158.76264343096582,3L158.76264343096582,18.6C158.76264343096582,20.255745073482,157.41838850444782,21.6,155.76264343096582,21.6L0,21.6C0,21.6,0,21.6,0,21.6L0,0C0,0,0,0,0,0Z" stroke-width="1"/><g clip-path="url(#clip5)"><g class="mark-group role-scope" role="graphics-object" aria-roledescription="group mark container"><g transform="translate(0,0)"><path class="background" aria-hidden="true" d="M0,0h0v21.6h0Z"/><g><g class="mark-rect role-mark layer_0_marks" role="graphics-object" aria-roledescription="rect mark container"><path aria-label="Share of Training Proofs Using the Rule (%): 19.0515172117; rule: BOTE; kind: Local" role="graphics-symbol" aria-roledescription="bar" d="M0,0h158.76264343096582v21.6h-158.76264343096582Z" fill="#8b919d" stroke="#1a1d24" stroke-width="1"/></g></g><path class="foreground" aria-hidden="true" d="" display="none"/></g></g></g><path class="foreground" aria-hidden="true" d="M0,0L155.76264343096582,0C157.41838850444782,0,158.76264343096582,1.344254926518,158.76264343096582,3L158.76264343096582,18.6C158.76264343096582,20.255745073482,157.41838850444782,21.6,155.76264343096582,21.6L0,21.6C0,21.6,0,21.6,0,21.6L0,0C0,0,0,0,0,0Z" stroke="#1a1d24" stroke-width="1"/></g><g transform="translate(0,121.19999999999999)"><path class="background" aria-hidden="true" d="M0,0L153.8606366693029,0C155.5163817427849,0,156.8606366693029,1.344254926518,156.8606366693029,3L156.8606366693029,18.6C156.8606366693029,20.255745073482,155.5163817427849,21.6,153.8606366693029,21.6L0,21.6C0,21.6,0,21.6,0,21.6L0,0C0,0,0,0,0,0Z" stroke-width="1"/><g clip-path="url(#clip6)"><g class="mark-group role-scope" role="graphics-object" aria-roledescription="group mark container"><g transform="translate(0,0)"><path class="background" aria-hidden="true" d="M0,0h0v21.6h0Z"/><g><g class="mark-rect role-mark layer_0_marks" role="graphics-object" aria-roledescription="rect mark container"><path aria-label="Share of Training Proofs Using the Rule (%): 18.8232764003; rule: ANDI; kind: Local" role="graphics-symbol" aria-roledescription="bar" d="M0,0h156.8606366693029v21.6h-156.8606366693029Z" fill="#8b919d" stroke="#1a1d24" stroke-width="1"/></g></g><path class="foreground" aria-hidden="true" d="" display="none"/></g></g></g><path class="foreground" aria-hidden="true" d="M0,0L153.8606366693029,0C155.5163817427849,0,156.8606366693029,1.344254926518,156.8606366693029,3L156.8606366693029,18.6C156.8606366693029,20.255745073482,155.5163817427849,21.6,153.8606366693029,21.6L0,21.6C0,21.6,0,21.6,0,21.6L0,0C0,0,0,0,0,0Z" stroke="#1a1d24" stroke-width="1"/></g><g transform="translate(0,145.2)"><path class="background" aria-hidden="true" d="M0,0L134.62666555668096,0C136.28241063016296,0,137.62666555668096,1.344254926518,137.62666555668096,3L137.62666555668096,18.6C137.62666555668096,20.255745073482,136.28241063016296,21.6,134.62666555668096,21.6L0,21.6C0,21.6,0,21.6,0,21.6L0,0C0,0,0,0,0,0Z" stroke-width="1"/><g clip-path="url(#clip7)"><g class="mark-group role-scope" role="graphics-object" aria-roledescription="group mark container"><g transform="translate(0,0)"><path class="background" aria-hidden="true" d="M0,0h0v21.6h0Z"/><g><g class="mark-rect role-mark layer_0_marks" role="graphics-object" aria-roledescription="rect mark container"><path aria-label="Share of Training Proofs Using the Rule (%): 16.5151998668; rule: ORI1; kind: Local" role="graphics-symbol" aria-roledescription="bar" d="M0,0h137.62666555668096v21.6h-137.62666555668096Z" fill="#8b919d" stroke="#1a1d24" stroke-width="1"/></g></g><path class="foreground" aria-hidden="true" d="" display="none"/></g></g></g><path class="foreground" aria-hidden="true" d="M0,0L134.62666555668096,0C136.28241063016296,0,137.62666555668096,1.344254926518,137.62666555668096,3L137.62666555668096,18.6C137.62666555668096,20.255745073482,136.28241063016296,21.6,134.62666555668096,21.6L0,21.6C0,21.6,0,21.6,0,21.6L0,0C0,0,0,0,0,0Z" stroke="#1a1d24" stroke-width="1"/></g><g transform="translate(0,169.2)"><path class="background" aria-hidden="true" d="M0,0L133.81151980168255,0C135.46726487516455,0,136.81151980168255,1.344254926518,136.81151980168255,3L136.81151980168255,18.6C136.81151980168255,20.255745073482,135.46726487516455,21.6,133.81151980168255,21.6L0,21.6C0,21.6,0,21.6,0,21.6L0,0C0,0,0,0,0,0Z" stroke-width="1"/><g clip-path="url(#clip8)"><g class="mark-group role-scope" role="graphics-object" aria-roledescription="group mark container"><g transform="translate(0,0)"><path class="background" aria-hidden="true" d="M0,0h0v21.6h0Z"/><g><g class="mark-rect role-mark layer_0_marks" role="graphics-object" aria-roledescription="rect mark container"><path aria-label="Share of Training Proofs Using the Rule (%): 16.4173823762; rule: ORI2; kind: Local" role="graphics-symbol" aria-roledescription="bar" d="M0,0h136.81151980168255v21.6h-136.81151980168255Z" fill="#8b919d" stroke="#1a1d24" stroke-width="1"/></g></g><path class="foreground" aria-hidden="true" d="" display="none"/></g></g></g><path class="foreground" aria-hidden="true" d="M0,0L133.81151980168255,0C135.46726487516455,0,136.81151980168255,1.344254926518,136.81151980168255,3L136.81151980168255,18.6C136.81151980168255,20.255745073482,135.46726487516455,21.6,133.81151980168255,21.6L0,21.6C0,21.6,0,21.6,0,21.6L0,0C0,0,0,0,0,0Z" stroke="#1a1d24" stroke-width="1"/></g><g transform="translate(0,193.2)"><path class="background" aria-hidden="true" d="M0,0L115.00535568104561,0C116.66110075452761,0,118.00535568104561,1.344254926518,118.00535568104561,3L118.00535568104561,18.6C118.00535568104561,20.255745073482,116.66110075452761,21.6,115.00535568104561,21.6L0,21.6C0,21.6,0,21.6,0,21.6L0,0C0,0,0,0,0,0Z" stroke-width="1"/><g clip-path="url(#clip9)"><g class="mark-group role-scope" role="graphics-object" aria-roledescription="group mark container"><g transform="translate(0,0)"><path class="background" aria-hidden="true" d="M0,0h0v21.6h0Z"/><g><g class="mark-rect role-mark layer_0_marks" role="graphics-object" aria-roledescription="rect mark container"><path aria-label="Share of Training Proofs Using the Rule (%): 14.1606426817; rule: DN; kind: Local" role="graphics-symbol" aria-roledescription="bar" d="M0,0h118.00535568104561v21.6h-118.00535568104561Z" fill="#8b919d" stroke="#1a1d24" stroke-width="1"/></g></g><path class="foreground" aria-hidden="true" d="" display="none"/></g></g></g><path class="foreground" aria-hidden="true" d="M0,0L115.00535568104561,0C116.66110075452761,0,118.00535568104561,1.344254926518,118.00535568104561,3L118.00535568104561,18.6C118.00535568104561,20.255745073482,116.66110075452761,21.6,115.00535568104561,21.6L0,21.6C0,21.6,0,21.6,0,21.6L0,0C0,0,0,0,0,0Z" stroke="#1a1d24" stroke-width="1"/></g><g transform="translate(0,217.2)"><path class="background" aria-hidden="true" d="M0,0L68.52470411943446,0C70.18044919291646,0,71.52470411943446,1.344254926518,71.52470411943446,3L71.52470411943446,18.6C71.52470411943446,20.255745073482,70.18044919291646,21.6,68.52470411943446,21.6L0,21.6C0,21.6,0,21.6,0,21.6L0,0C0,0,0,0,0,0Z" stroke-width="1"/><g clip-path="url(#clip10)"><g class="mark-group role-scope" role="graphics-object" aria-roledescription="group mark container"><g transform="translate(0,0)"><path class="background" aria-hidden="true" d="M0,0h0v21.6h0Z"/><g><g class="mark-rect role-mark layer_0_marks" role="graphics-object" aria-roledescription="rect mark container"><path aria-label="Share of Training Proofs Using the Rule (%): 8.58296449433; rule: AS; kind: Local" role="graphics-symbol" aria-roledescription="bar" d="M0,0h71.52470411943446v21.6h-71.52470411943446Z" fill="#8b919d" stroke="#1a1d24" stroke-width="1"/></g></g><path class="foreground" aria-hidden="true" d="" display="none"/></g></g></g><path class="foreground" aria-hidden="true" d="M0,0L68.52470411943446,0C70.18044919291646,0,71.52470411943446,1.344254926518,71.52470411943446,3L71.52470411943446,18.6C71.52470411943446,20.255745073482,70.18044919291646,21.6,68.52470411943446,21.6L0,21.6C0,21.6,0,21.6,0,21.6L0,0C0,0,0,0,0,0Z" stroke="#1a1d24" stroke-width="1"/></g><g transform="translate(0,241.2)"><path class="background" aria-hidden="true" d="M0,0L62.04400630841877,0C63.699751381900775,0,65.04400630841877,1.344254926518,65.04400630841877,3L65.04400630841877,18.6C65.04400630841877,20.255745073482,63.699751381900775,21.6,62.04400630841877,21.6L0,21.6C0,21.6,0,21.6,0,21.6L0,0C0,0,0,0,0,0Z" stroke-width="1"/><g clip-path="url(#clip11)"><g class="mark-group role-scope" role="graphics-object" aria-roledescription="group mark container"><g transform="translate(0,0)"><path class="background" aria-hidden="true" d="M0,0h0v21.6h0Z"/><g><g class="mark-rect role-mark layer_0_marks" role="graphics-object" aria-roledescription="rect mark container"><path aria-label="Share of Training Proofs Using the Rule (%): 7.80528075701; rule: IMPI; kind: Opens a subproof" role="graphics-symbol" aria-roledescription="bar" d="M0,0h65.04400630841877v21.6h-65.04400630841877Z" fill="#c1432e" stroke="#1a1d24" stroke-width="1"/></g></g><path class="foreground" aria-hidden="true" d="" display="none"/></g></g></g><path class="foreground" aria-hidden="true" d="M0,0L62.04400630841877,0C63.699751381900775,0,65.04400630841877,1.344254926518,65.04400630841877,3L65.04400630841877,18.6C65.04400630841877,20.255745073482,63.699751381900775,21.6,62.04400630841877,21.6L0,21.6C0,21.6,0,21.6,0,21.6L0,0C0,0,0,0,0,0Z" stroke="#1a1d24" stroke-width="1"/></g><g transform="translate(0,265.2)"><path class="background" aria-hidden="true" d="M0,0L8.151887669446255,0C9.807632742928256,0,11.151887669446255,1.344254926518,11.151887669446255,3L11.151887669446255,18.6C11.151887669446255,20.255745073482,9.807632742928256,21.6,8.151887669446255,21.6L0,21.6C0,21.6,0,21.6,0,21.6L0,0C0,0,0,0,0,0Z" stroke-width="1"/><g clip-path="url(#clip12)"><g class="mark-group role-scope" role="graphics-object" aria-roledescription="group mark container"><g transform="translate(0,0)"><path class="background" aria-hidden="true" d="M0,0h0v21.6h0Z"/><g><g class="mark-rect role-mark layer_0_marks" role="graphics-object" aria-roledescription="rect mark container"><path aria-label="Share of Training Proofs Using the Rule (%): 1.33822652033; rule: REIT; kind: Local" role="graphics-symbol" aria-roledescription="bar" d="M0,0h11.151887669446255v21.6h-11.151887669446255Z" fill="#8b919d" stroke="#1a1d24" stroke-width="1"/></g></g><path class="foreground" aria-hidden="true" d="" display="none"/></g></g></g><path class="foreground" aria-hidden="true" d="M0,0L8.151887669446255,0C9.807632742928256,0,11.151887669446255,1.344254926518,11.151887669446255,3L11.151887669446255,18.6C11.151887669446255,20.255745073482,9.807632742928256,21.6,8.151887669446255,21.6L0,21.6C0,21.6,0,21.6,0,21.6L0,0C0,0,0,0,0,0Z" stroke="#1a1d24" stroke-width="1"/></g><g transform="translate(0,289.2)"><path class="background" aria-hidden="true" d="M0,0L2.3442666925663334,0C3.6381027016145495,0,4.688533385132667,1.0504306835181172,4.688533385132667,2.3442666925663334L4.688533385132667,19.25573330743367C4.688533385132667,20.549569316481886,3.6381027016145495,21.6,2.3442666925663334,21.6L0,21.6C0,21.6,0,21.6,0,21.6L0,0C0,0,0,0,0,0Z" stroke-width="1"/><g clip-path="url(#clip13)"><g class="mark-group role-scope" role="graphics-object" aria-roledescription="group mark container"><g transform="translate(0,0)"><path class="background" aria-hidden="true" d="M0,0h0v21.6h0Z"/><g><g class="mark-rect role-mark layer_0_marks" role="graphics-object" aria-roledescription="rect mark container"><path aria-label="Share of Training Proofs Using the Rule (%): 0.562624006216; rule: ORE; kind: Opens a subproof" role="graphics-symbol" aria-roledescription="bar" d="M0,0h4.688533385132667v21.6h-4.688533385132667Z" fill="#c1432e" stroke="#1a1d24" stroke-width="1"/></g></g><path class="foreground" aria-hidden="true" d="" display="none"/></g></g></g><path class="foreground" aria-hidden="true" d="M0,0L2.3442666925663334,0C3.6381027016145495,0,4.688533385132667,1.0504306835181172,4.688533385132667,2.3442666925663334L4.688533385132667,19.25573330743367C4.688533385132667,20.549569316481886,3.6381027016145495,21.6,2.3442666925663334,21.6L0,21.6C0,21.6,0,21.6,0,21.6L0,0C0,0,0,0,0,0Z" stroke="#1a1d24" stroke-width="1"/></g><g transform="translate(0,313.2)"><path class="background" aria-hidden="true" d="M0,0L0.8989728007251906,0C1.3951293960568738,0,1.7979456014503812,0.40281620539350727,1.7979456014503812,0.8989728007251906L1.7979456014503812,20.70102719927481C1.7979456014503812,21.197183794606495,1.3951293960568738,21.6,0.8989728007251906,21.6L0,21.6C0,21.6,0,21.6,0,21.6L0,0C0,0,0,0,0,0Z" stroke-width="1"/><g clip-path="url(#clip14)"><g class="mark-group role-scope" role="graphics-object" aria-roledescription="group mark container"><g transform="translate(0,0)"><path class="background" aria-hidden="true" d="M0,0h0v21.6h0Z"/><g><g class="mark-rect role-mark layer_0_marks" role="graphics-object" aria-roledescription="rect mark container"><path aria-label="Share of Training Proofs Using the Rule (%): 0.215753472174; rule: NEGI; kind: Opens a subproof" role="graphics-symbol" aria-roledescription="bar" d="M0,0h1.7979456014503812v21.6h-1.7979456014503812Z" fill="#c1432e" stroke="#1a1d24" stroke-width="1"/></g></g><path class="foreground" aria-hidden="true" d="" display="none"/></g></g></g><path class="foreground" aria-hidden="true" d="M0,0L0.8989728007251906,0C1.3951293960568738,0,1.7979456014503812,0.40281620539350727,1.7979456014503812,0.8989728007251906L1.7979456014503812,20.70102719927481C1.7979456014503812,21.197183794606495,1.3951293960568738,21.6,0.8989728007251906,21.6L0,21.6C0,21.6,0,21.6,0,21.6L0,0C0,0,0,0,0,0Z" stroke="#1a1d24" stroke-width="1"/></g></g><g class="mark-text role-mark layer_1_marks" role="graphics-object" aria-roledescription="text mark container"><text aria-label="share: 56.7563442621; rule: IMPE; txt: 56.8%" role="graphics-symbol" aria-roledescription="text mark" text-anchor="start" transform="translate(478.96953551723027,15.99999999999999)" font-family="system-ui, -apple-system, Segoe UI, Helvetica, Arial, sans-serif" font-size="12.2px" fill="#ccd0d8">56.8%</text><text aria-label="share: 32.6536983336; rule: ANDE1; txt: 32.7%" role="graphics-symbol" aria-roledescription="text mark" text-anchor="start" transform="translate(278.11415278028295,39.999999999999986)" font-family="system-ui, -apple-system, Segoe UI, Helvetica, Arial, sans-serif" font-size="12.2px" fill="#ccd0d8">32.7%</text><text aria-label="share: 32.2131727554; rule: ANDE2; txt: 32.2%" role="graphics-symbol" aria-roledescription="text mark" text-anchor="start" transform="translate(274.44310629500643,63.999999999999986)" font-family="system-ui, -apple-system, Segoe UI, Helvetica, Arial, sans-serif" font-size="12.2px" fill="#ccd0d8">32.2%</text><text aria-label="share: 19.7521956905; rule: NEGE; txt: 19.8%" role="graphics-symbol" aria-roledescription="text mark" text-anchor="start" transform="translate(170.60163075400402,87.99999999999999)" font-family="system-ui, -apple-system, Segoe UI, Helvetica, Arial, sans-serif" font-size="12.2px" fill="#ccd0d8">19.8%</text><text aria-label="share: 19.0515172117; rule: BOTE; txt: 19.1%" role="graphics-symbol" aria-roledescription="text mark" text-anchor="start" transform="translate(164.76264343096582,111.99999999999999)" font-family="system-ui, -apple-system, Segoe UI, Helvetica, Arial, sans-serif" font-size="12.2px" fill="#ccd0d8">19.1%</text><text aria-label="share: 18.8232764003; rule: ANDI; txt: 18.8%" role="graphics-symbol" aria-roledescription="text mark" text-anchor="start" transform="translate(162.8606366693029,136)" font-family="system-ui, -apple-system, Segoe UI, Helvetica, Arial, sans-serif" font-size="12.2px" fill="#ccd0d8">18.8%</text><text aria-label="share: 16.5151998668; rule: ORI1; txt: 16.5%" role="graphics-symbol" aria-roledescription="text mark" text-anchor="start" transform="translate(143.62666555668096,160)" font-family="system-ui, -apple-system, Segoe UI, Helvetica, Arial, sans-serif" font-size="12.2px" fill="#ccd0d8">16.5%</text><text aria-label="share: 16.4173823762; rule: ORI2; txt: 16.4%" role="graphics-symbol" aria-roledescription="text mark" text-anchor="start" transform="translate(142.81151980168255,184)" font-family="system-ui, -apple-system, Segoe UI, Helvetica, Arial, sans-serif" font-size="12.2px" fill="#ccd0d8">16.4%</text><text aria-label="share: 14.1606426817; rule: DN; txt: 14.2%" role="graphics-symbol" aria-roledescription="text mark" text-anchor="start" transform="translate(124.00535568104561,208)" font-family="system-ui, -apple-system, Segoe UI, Helvetica, Arial, sans-serif" font-size="12.2px" fill="#ccd0d8">14.2%</text><text aria-label="share: 8.58296449433; rule: AS; txt: 8.6%" role="graphics-symbol" aria-roledescription="text mark" text-anchor="start" transform="translate(77.52470411943446,232)" font-family="system-ui, -apple-system, Segoe UI, Helvetica, Arial, sans-serif" font-size="12.2px" fill="#ccd0d8">8.6%</text><text aria-label="share: 7.80528075701; rule: IMPI; txt: 7.8%" role="graphics-symbol" aria-roledescription="text mark" text-anchor="start" transform="translate(71.04400630841877,256)" font-family="system-ui, -apple-system, Segoe UI, Helvetica, Arial, sans-serif" font-size="12.2px" fill="#ccd0d8">7.8%</text><text aria-label="share: 1.33822652033; rule: REIT; txt: 1.3%" role="graphics-symbol" aria-roledescription="text mark" text-anchor="start" transform="translate(17.151887669446253,280)" font-family="system-ui, -apple-system, Segoe UI, Helvetica, Arial, sans-serif" font-size="12.2px" fill="#ccd0d8">1.3%</text><text aria-label="share: 0.562624006216; rule: ORE; txt: 0.6%" role="graphics-symbol" aria-roledescription="text mark" text-anchor="start" transform="translate(10.688533385132667,304)" font-family="system-ui, -apple-system, Segoe UI, Helvetica, Arial, sans-serif" font-size="12.2px" fill="#ccd0d8">0.6%</text><text aria-label="share: 0.215753472174; rule: NEGI; txt: 0.2%" role="graphics-symbol" aria-roledescription="text mark" text-anchor="start" transform="translate(7.797945601450381,328)" font-family="system-ui, -apple-system, Segoe UI, Helvetica, Arial, sans-serif" font-size="12.2px" fill="#ccd0d8">0.2%</text></g><g class="mark-group role-legend" role="graphics-symbol" aria-roledescription="legend" aria-label="Symbol legend for fill color with 2 values: Local, Opens a subproof"><g transform="translate(368,297)"><path class="background" aria-hidden="true" d="M0,0h124v31h-124Z" pointer-events="none"/><g><g class="mark-group role-legend-entry"><g transform="translate(0,0)"><path class="background" aria-hidden="true" d="M0,0h0v0h0Z" pointer-events="none"/><g><g class="mark-group role-scope" role="graphics-object" aria-roledescription="group mark container"><g transform="translate(0,0)"><path class="background" aria-hidden="true" d="M0,0h123.03111724853515v13.15h-123.03111724853515Z" pointer-events="none" opacity="1"/><g><g class="mark-symbol role-legend-symbol" pointer-events="none"><path transform="translate(6.65,6.65)" d="M-5,-5h10v10h-10Z" fill="#8b919d" stroke="#1a1d24" stroke-width="1.5" opacity="1"/></g><g class="mark-text role-legend-label" pointer-events="none"><text text-anchor="start" transform="translate(17.3,10.65)" font-family="system-ui, -apple-system, Segoe UI, Helvetica, Arial, sans-serif" font-size="13.3px" fill="#ccd0d8" opacity="1">Local</text></g></g><path class="foreground" aria-hidden="true" d="" pointer-events="none" display="none"/></g><g transform="translate(0,17)"><path class="background" aria-hidden="true" d="M0,0h123.03111724853515v13.149999999999999h-123.03111724853515Z" pointer-events="none" opacity="1"/><g><g class="mark-symbol role-legend-symbol" pointer-events="none"><path transform="translate(6.65,6.65)" d="M-5,-5h10v10h-10Z" fill="#c1432e" stroke="#1a1d24" stroke-width="1.5" opacity="1"/></g><g class="mark-text role-legend-label" pointer-events="none"><text text-anchor="start" transform="translate(17.3,10.65)" font-family="system-ui, -apple-system, Segoe UI, Helvetica, Arial, sans-serif" font-size="13.3px" fill="#ccd0d8" opacity="1">Opens a subproof</text></g></g><path class="foreground" aria-hidden="true" d="" pointer-events="none" display="none"/></g></g></g><path class="foreground" aria-hidden="true" d="" pointer-events="none" display="none"/></g></g></g><path class="foreground" aria-hidden="true" d="" pointer-events="none" display="none"/></g></g><g class="mark-group role-title"><g transform="translate(-55.01640319824219,-22.9)"><path class="background" aria-hidden="true" d="M0,0h0v0h0Z" pointer-events="none"/><g><g class="mark-text role-title-text" role="graphics-symbol" aria-roledescription="title" aria-label="Title text 'The Rules That Open a Subproof Are the Rare Ones'" pointer-events="none"><text text-anchor="start" transform="translate(0,15)" font-family="system-ui, -apple-system, Segoe UI, Helvetica, Arial, sans-serif" font-size="18.9px" font-weight="bold" fill="#ccd0d8" opacity="1">The Rules That Open a Subproof Are the Rare Ones</text></g></g><path class="foreground" aria-hidden="true" d="" pointer-events="none" display="none"/></g></g></g><path class="foreground" aria-hidden="true" d="" display="none"/></g></g></g><defs><clipPath id="clip1"><path d="M0,0L469.96953551723027,0C471.6252805907123,0,472.96953551723027,1.344254926518,472.96953551723027,3L472.96953551723027,18.6C472.96953551723027,20.255745073482,471.6252805907123,21.6,469.96953551723027,21.6L0,21.6C0,21.6,0,21.6,0,21.6L0,0C0,0,0,0,0,0Z"/></clipPath><clipPath id="clip2"><path d="M0,0L269.11415278028295,0C270.769897853765,0,272.11415278028295,1.344254926518,272.11415278028295,3L272.11415278028295,18.6C272.11415278028295,20.255745073482,270.769897853765,21.6,269.11415278028295,21.6L0,21.6C0,21.6,0,21.6,0,21.6L0,0C0,0,0,0,0,0Z"/></clipPath><clipPath id="clip3"><path d="M0,0L265.44310629500643,0C267.09885136848845,0,268.44310629500643,1.344254926518,268.44310629500643,3L268.44310629500643,18.6C268.44310629500643,20.255745073482,267.09885136848845,21.6,265.44310629500643,21.6L0,21.6C0,21.6,0,21.6,0,21.6L0,0C0,0,0,0,0,0Z"/></clipPath><clipPath id="clip4"><path d="M0,0L161.60163075400402,0C163.25737582748602,0,164.60163075400402,1.344254926518,164.60163075400402,3L164.60163075400402,18.6C164.60163075400402,20.255745073482,163.25737582748602,21.6,161.60163075400402,21.6L0,21.6C0,21.6,0,21.6,0,21.6L0,0C0,0,0,0,0,0Z"/></clipPath><clipPath id="clip5"><path d="M0,0L155.76264343096582,0C157.41838850444782,0,158.76264343096582,1.344254926518,158.76264343096582,3L158.76264343096582,18.6C158.76264343096582,20.255745073482,157.41838850444782,21.6,155.76264343096582,21.6L0,21.6C0,21.6,0,21.6,0,21.6L0,0C0,0,0,0,0,0Z"/></clipPath><clipPath id="clip6"><path d="M0,0L153.8606366693029,0C155.5163817427849,0,156.8606366693029,1.344254926518,156.8606366693029,3L156.8606366693029,18.6C156.8606366693029,20.255745073482,155.5163817427849,21.6,153.8606366693029,21.6L0,21.6C0,21.6,0,21.6,0,21.6L0,0C0,0,0,0,0,0Z"/></clipPath><clipPath id="clip7"><path d="M0,0L134.62666555668096,0C136.28241063016296,0,137.62666555668096,1.344254926518,137.62666555668096,3L137.62666555668096,18.6C137.62666555668096,20.255745073482,136.28241063016296,21.6,134.62666555668096,21.6L0,21.6C0,21.6,0,21.6,0,21.6L0,0C0,0,0,0,0,0Z"/></clipPath><clipPath id="clip8"><path d="M0,0L133.81151980168255,0C135.46726487516455,0,136.81151980168255,1.344254926518,136.81151980168255,3L136.81151980168255,18.6C136.81151980168255,20.255745073482,135.46726487516455,21.6,133.81151980168255,21.6L0,21.6C0,21.6,0,21.6,0,21.6L0,0C0,0,0,0,0,0Z"/></clipPath><clipPath id="clip9"><path d="M0,0L115.00535568104561,0C116.66110075452761,0,118.00535568104561,1.344254926518,118.00535568104561,3L118.00535568104561,18.6C118.00535568104561,20.255745073482,116.66110075452761,21.6,115.00535568104561,21.6L0,21.6C0,21.6,0,21.6,0,21.6L0,0C0,0,0,0,0,0Z"/></clipPath><clipPath id="clip10"><path d="M0,0L68.52470411943446,0C70.18044919291646,0,71.52470411943446,1.344254926518,71.52470411943446,3L71.52470411943446,18.6C71.52470411943446,20.255745073482,70.18044919291646,21.6,68.52470411943446,21.6L0,21.6C0,21.6,0,21.6,0,21.6L0,0C0,0,0,0,0,0Z"/></clipPath><clipPath id="clip11"><path d="M0,0L62.04400630841877,0C63.699751381900775,0,65.04400630841877,1.344254926518,65.04400630841877,3L65.04400630841877,18.6C65.04400630841877,20.255745073482,63.699751381900775,21.6,62.04400630841877,21.6L0,21.6C0,21.6,0,21.6,0,21.6L0,0C0,0,0,0,0,0Z"/></clipPath><clipPath id="clip12"><path d="M0,0L8.151887669446255,0C9.807632742928256,0,11.151887669446255,1.344254926518,11.151887669446255,3L11.151887669446255,18.6C11.151887669446255,20.255745073482,9.807632742928256,21.6,8.151887669446255,21.6L0,21.6C0,21.6,0,21.6,0,21.6L0,0C0,0,0,0,0,0Z"/></clipPath><clipPath id="clip13"><path d="M0,0L2.3442666925663334,0C3.6381027016145495,0,4.688533385132667,1.0504306835181172,4.688533385132667,2.3442666925663334L4.688533385132667,19.25573330743367C4.688533385132667,20.549569316481886,3.6381027016145495,21.6,2.3442666925663334,21.6L0,21.6C0,21.6,0,21.6,0,21.6L0,0C0,0,0,0,0,0Z"/></clipPath><clipPath id="clip14"><path d="M0,0L0.8989728007251906,0C1.3951293960568738,0,1.7979456014503812,0.40281620539350727,1.7979456014503812,0.8989728007251906L1.7979456014503812,20.70102719927481C1.7979456014503812,21.197183794606495,1.3951293960568738,21.6,0.8989728007251906,21.6L0,21.6C0,21.6,0,21.6,0,21.6L0,0C0,0,0,0,0,0Z"/></clipPath></defs></svg>